HIERARCHY
ROOT SpineBase
{
  OFFSET 0.000000 0.000000 0.000000
  CHANNELS 6 Xposition Yposition Zposition Zrotation Xrotation Yrotation
  JOINT SpineMid
  {
    OFFSET -0.000000 27.647864 0.000000
    CHANNELS 3 Zrotation Xrotation Yrotation
    JOINT SpineShoulder
    {
      OFFSET 0.138147 20.818823 -0.764962
      CHANNELS 3 Zrotation Xrotation Yrotation
      JOINT Neck
      {
        OFFSET 0.091950 7.003554 -0.545464
        CHANNELS 3 Zrotation Xrotation Yrotation
        JOINT Head
        {
          OFFSET 3.967316 13.434777 0.574799
          CHANNELS 3 Zrotation Xrotation Yrotation
          End Site
          {
            OFFSET 0 0 0
          }
        }
      }
      JOINT ShoulderLeft
      {
        OFFSET -8.911129 1.629401 -11.250050
        CHANNELS 3 Zrotation Xrotation Yrotation
        JOINT ElbowLeft
        {
          OFFSET -1.261421 -15.479265 -10.830457
          CHANNELS 3 Zrotation Xrotation Yrotation
          JOINT WristLeft
          {
            OFFSET 15.820173 -17.043429 -13.245360
            CHANNELS 3 Zrotation Xrotation Yrotation
            JOINT HandLeft
            {
              OFFSET 3.129894 -3.220827 -5.769531
              CHANNELS 3 Zrotation Xrotation Yrotation
              JOINT HandTipLeft
              {
                OFFSET 3.951519 -3.361687 -4.726001
                CHANNELS 3 Zrotation Xrotation Yrotation
                End Site
                {
                  OFFSET 0 0 0
                }
              }
              JOINT ThumbLeft
              {
                OFFSET -2.228729 0.656601 -3.593756
                CHANNELS 3 Zrotation Xrotation Yrotation
                End Site
                {
                  OFFSET 0 0 0
                }
              }
            }
          }
        }
      }
      JOINT ShoulderRight
      {
        OFFSET 13.657998 -4.239714 9.821064
        CHANNELS 3 Zrotation Xrotation Yrotation
        JOINT ElbowRight
        {
          OFFSET 8.808801 -22.517915 -2.680454
          CHANNELS 3 Zrotation Xrotation Yrotation
          JOINT WristRight
          {
            OFFSET 10.966996 -10.047189 -14.698551
            CHANNELS 3 Zrotation Xrotation Yrotation
            JOINT HandRight
            {
              OFFSET -1.264742 -2.393012 -2.971223
              CHANNELS 3 Zrotation Xrotation Yrotation
              JOINT HandTipRight
              {
                OFFSET 1.745993 -4.095876 -4.617495
                CHANNELS 3 Zrotation Xrotation Yrotation
                End Site
                {
                  OFFSET 0 0 0
                }
              }
              JOINT ThumbRight
              {
                OFFSET -3.838581 -0.037378 -1.209661
                CHANNELS 3 Zrotation Xrotation Yrotation
                End Site
                {
                  OFFSET 0 0 0
                }
              }
            }
          }
        }
      }
    }
  }
  JOINT HipLeft
  {
    OFFSET -4.764687 2.303284 -7.792588
    CHANNELS 3 Zrotation Xrotation Yrotation
    JOINT KneeLeft
    {
      OFFSET 15.200122 8.540485 -30.882519
      CHANNELS 3 Zrotation Xrotation Yrotation
      JOINT AnkleLeft
      {
        OFFSET 9.428530 -31.972476 5.171659
        CHANNELS 3 Zrotation Xrotation Yrotation
        JOINT FootLeft
        {
          OFFSET -0.850626 -6.543537 -3.279861
          CHANNELS 3 Zrotation Xrotation Yrotation
          End Site
          {
            OFFSET 0 0 0
          }
        }
      }
    }
  }
  JOINT HipRight
  {
    OFFSET 5.608289 1.031491 2.168136
    CHANNELS 3 Zrotation Xrotation Yrotation
    JOINT KneeRight
    {
      OFFSET 29.771271 4.980242 -11.068658
      CHANNELS 3 Zrotation Xrotation Yrotation
      JOINT AnkleRight
      {
        OFFSET -3.157407 -30.688357 -12.018426
        CHANNELS 3 Zrotation Xrotation Yrotation
        JOINT FootRight
        {
          OFFSET 11.139484 -2.509051 -10.187603
          CHANNELS 3 Zrotation Xrotation Yrotation
          End Site
          {
            OFFSET 0 0 0
          }
        }
      }
    }
  }
}
MOTION
Frames: 5
Frame Time: 0.033333
-48.885362 27.568665 328.694556 4.988562 1.166281 -36.932157 0.365303 0.290760 37.077475 -0.047541 0.182959 0.202101 -4.697804 -4.138873 0.367959 0.000000 0.000000 0.000000 4.083570 -14.887174 -5.147153 29.801991 22.750379 -21.672263 0.244963 13.639753 -19.062902 2.930841 -7.187180 8.511591 0.000000 0.000000 0.000000 0.000000 0.000000 0.000000 6.436754 19.833986 4.295275 -28.698507 4.039693 32.779253 51.112679 2.268910 -71.480621 -35.489258 -9.018683 48.852631 0.000000 0.000000 0.000000 0.000000 0.000000 0.000000 -0.892585 -10.448184 40.741601 5.933898 2.530412 -4.570680 44.982030 41.503726 -43.613290 0.000000 0.000000 0.000000 -3.874900 -5.323789 38.325771 1.823300 1.708559 -1.909445 -2.318003 4.358318 27.671319 0.000000 0.000000 0.000000
-48.975408 27.568968 328.662356 4.854050 1.244227 -36.742148 0.328406 0.303624 36.877741 -0.125317 0.222780 0.185979 -6.125745 -3.503819 0.147095 0.000000 0.000000 0.000000 4.398985 -14.726044 -5.193779 30.876212 22.741776 -22.189198 0.305413 11.917329 -20.288433 3.534902 -7.389547 8.274533 0.000000 0.000000 0.000000 0.000000 0.000000 0.000000 12.448824 27.526153 4.505722 -36.528381 -2.184677 28.023759 46.005514 4.507776 -66.956012 -10.224414 10.173747 39.690394 0.000000 0.000000 0.000000 0.000000 0.000000 0.000000 -0.834995 -10.541117 40.271552 5.758190 2.446166 -4.376454 46.361661 42.009622 -44.737436 0.000000 0.000000 0.000000 -3.727495 -5.206058 37.916867 1.748553 1.660192 -1.682040 -4.869638 6.184918 44.054978 0.000000 0.000000 0.000000
-49.066629 27.538058 328.628364 4.686272 1.344522 -36.383359 0.263025 0.328260 36.505619 -0.198687 0.271061 0.167438 -7.614977 -3.034901 -0.028300 0.000000 0.000000 0.000000 4.606058 -14.620362 -5.131114 32.402574 22.570576 -23.060869 0.040875 11.202274 -20.932207 4.784046 -8.835719 7.447457 0.000000 0.000000 0.000000 0.000000 0.000000 0.000000 20.112682 35.933623 3.488066 -47.294861 -8.621347 21.400735 42.464628 8.886078 -62.503867 -5.374328 13.773996 37.096770 0.000000 0.000000 0.000000 0.000000 0.000000 0.000000 -0.791055 -10.534491 39.624363 5.577951 2.279071 -4.166445 43.759729 42.289383 -42.300893 0.000000 0.000000 0.000000 -3.498199 -4.979221 37.305843 1.573105 1.595429 -1.418751 -5.922099 7.545304 51.858823 0.000000 0.000000 0.000000
-49.140209 27.469584 328.606807 4.510641 1.442371 -35.830751 0.133969 0.356095 35.935837 -0.261007 0.304068 0.148118 -8.728752 -2.725869 -0.157951 0.000000 0.000000 0.000000 4.830267 -14.498174 -5.045569 33.648219 23.037543 -23.361405 0.520477 6.667683 -23.356433 4.101574 -6.767683 8.353534 0.000000 0.000000 0.000000 0.000000 0.000000 0.000000 29.775123 45.503356 0.614740 -60.791188 -13.994750 12.018002 39.940652 3.757873 -59.900669 -11.963482 19.634912 38.516643 0.000000 0.000000 0.000000 0.000000 0.000000 0.000000 -0.757245 -10.445536 38.893891 5.526674 2.138285 -4.021789 34.488955 38.751881 -33.234696 0.000000 0.000000 0.000000 -3.226426 -4.669502 36.527814 1.286044 1.500615 -1.164409 -5.999649 8.458235 54.053091 0.000000 0.000000 0.000000
-49.219185 27.359540 328.575129 4.289165 1.572786 -35.146008 0.006052 0.369545 35.232221 -0.331330 0.332231 0.125957 -9.326281 -2.622252 -0.234116 0.000000 0.000000 0.000000 4.999674 -14.401117 -4.875878 34.877351 23.343784 -23.700715 0.871456 2.667315 -25.433613 5.112594 -6.662099 7.641527 0.000000 0.000000 0.000000 0.000000 0.000000 0.000000 38.326946 51.772310 -3.177603 -74.563442 -16.797869 5.051506 35.744561 4.568760 -54.277192 -23.069318 12.795857 44.889935 0.000000 0.000000 0.000000 0.000000 0.000000 0.000000 -0.704139 -10.041968 38.163767 5.439895 1.802190 -3.953868 31.241194 37.864359 -30.369990 0.000000 0.000000 0.000000 -2.856540 -4.292266 35.618472 0.923229 1.369984 -0.906206 -5.009230 8.945974 50.701110 0.000000 0.000000 0.000000
